<?xml version="1.0" standalone="yes"?>
<svg xmlns="http://www.w3.org/2000/svg" width="899" height="524">

  <path style="fill:#b673e4; stroke:none;"
        d="M554 91C551.04 103.441 538.012 104.541 528 108.325C519.35 111.594 509.895 116.594 502 121.429C468.401 142.006 438.415 169.801 425.429 208C420.422 222.729 421.185 242.848 429.699 256C434.203 262.957 439.467 270.593 448 266C446.302 259.95 440.934 256.514 437.329 251.576C432.624 245.133 429.859 236.946 430.015 229C430.373 210.812 438.758 197.64 448.316 183C464.767 157.801 487.753 139.513 514 124.862C519.472 121.807 525.098 118.224 531 116.09C540.286 112.733 553.034 111.045 558.772 101.91C561.492 97.5778 562.485 89.3705 558.682 85.3904C555.761 82.3333 551.381 81.099 548.34 78.0648C545.513 75.2441 543.938 71.6342 542.425 68C536.147 52.9221 547.744 33.826 558.171 23.0903C565.003 16.0553 575.779 9.39642 586 10.2245C601.588 11.4875 614.636 27.8389 618 42L626 42C625.551 33.2339 620.805 23.4208 614.906 17.0008C611.158 12.9216 606.888 9.17639 602 6.51849C596.691 3.63171 590.934 3.00916 585 3C558.074 2.9585 539.311 26.0728 533.68 51C530.286 66.0251 537.049 87.9407 554 91z"/>


  <path style="fill:#f16faf; stroke:none;"
        d="M128 175C125.196 175.766 122.635 176.77 120 178C124.3 185.549 130.061 192.14 135.349 199C142.282 207.994 149.602 218.089 160 223.342C181.336 234.121 217.932 224.181 223.96 199C226.874 186.825 222.773 169.706 216.522 159C214.039 154.748 205.155 146.467 209.423 141.279C213.65 136.139 221.631 139.571 227 140.41C237.124 141.991 257.188 144.143 264.772 135.891C269.413 130.841 265.886 124.204 269.603 119.213C272.236 115.679 277.457 114.047 281 111.56C289.542 105.564 299.806 95.5371 302.316 85C306.818 66.1027 292.781 44.3497 306.329 28.0008C311.229 22.0873 317.177 18.1297 325 18.0185C333.475 17.8981 338.309 22.2742 346 17C343.394 11.7175 338.494 10.6206 333 9.51392C319.3 6.75409 305.451 11.4217 297.444 23C284.549 41.6462 297.626 60.1682 293.657 80C291.611 90.2214 280.366 100.141 272 105.441C268.478 107.673 264.194 108.894 261.434 112.188C257.168 117.277 261.353 124.967 256.682 129.57C253.249 132.954 247.485 132.998 243 132.998C230.379 132.998 210.178 123.129 200.434 135.108C195.674 140.959 198.521 150.308 202.094 156C208.928 166.887 217.477 179.287 215.814 193C213.662 210.743 186.003 223.87 170 217.521C157.432 212.535 148.473 200.191 140.335 190C136.286 184.929 131.872 180.224 128 175z"/>

  <path style="fill:#ce0267; stroke:none;"
        d="M347 16C345.074 17.242 342.077 18.6374 341.46 21.0911C340.903 23.3041 342.662 25.0087 344.113 26.385C347.961 30.0341 352.214 33.0671 355.83 36.9969C359.008 40.4502 362.092 43.8697 366 46.5401C378.757 55.2564 392.083 50.9964 406 49.2863C409.615 48.8421 422.377 47.8972 423.369 53.1729C423.925 56.131 418.962 57.4616 417 58.1651C409.109 60.9949 402.098 64.0181 396.514 70.615C390.048 78.2543 396.683 91.0502 394.39 100C393.261 104.408 391.079 109.307 388.363 112.961C384.771 117.796 380.639 120.713 379.379 127C377.889 134.431 377.762 146.06 383.225 151.87C387.575 156.498 393.555 157.363 399 159.985C405.477 163.103 411.281 169.218 413.856 176C416.285 182.401 415.415 192.865 409.856 197.49C404.626 201.841 399.546 202.255 396.183 209C384.889 231.649 398.157 264.131 373 280C375.277 283.086 377.682 285.079 381 287C386.86 279.088 394.916 270.011 396.671 260C398.113 251.777 398.591 242.365 398.961 234C399.212 228.304 399.022 222.29 401.572 217C404.907 210.08 411.736 207.869 416.786 202.787C423.04 196.494 424.357 184.335 422.471 176C420.689 168.123 414.731 159.416 407.961 154.994C398.566 148.858 383.629 147.068 386.228 132C387.043 127.277 390.774 123.707 393.522 120C397.275 114.937 400.81 109.17 402.39 103C404.579 94.4583 398.603 82.2328 404.318 75.0432C410.262 67.5657 420.351 67.348 427.956 62.6366C432.713 59.6895 434.326 54.0045 431.566 49.0154C428.347 43.195 421.241 41.109 415 41.0046C404.114 40.8227 392.683 45.6808 382 43.7361C368.132 41.2116 356.743 25.0078 347 16z"/>

  <path style="fill:#7932ab; stroke:none;"
        d="M618 42C619.343 47.8474 618.151 53.455 613.867 57.8951C608.611 63.3411 601.008 64.918 595.001 69.1736C592.251 71.122 589.763 73.3549 587.684 76.0146C580.26 85.5125 572.229 107.04 583.108 116.721C592.057 124.685 608.975 121.467 616.96 113.895C623.083 108.089 625.638 99.8045 630.439 93C639.948 79.5236 656.593 66.699 674 67.1288C688.803 67.4944 703.69 74.7444 716.282 81.8951C720.602 84.3489 726.778 87.4851 729.212 92.0401C731.59 96.49 727.282 102.318 727.133 107C726.771 118.439 737.562 122.202 747 123.557C760.939 125.559 766.843 112.292 773.761 103C780.006 94.6108 788.392 89.1171 799 89.0038C802.601 88.9654 806.765 88.7326 809.887 90.858C814.659 94.1065 812.536 98.5037 808.955 101.671C805.072 105.107 799.747 107.995 795 110.049C790.924 111.814 786.448 112.767 784.179 117.043C778.912 126.97 788.195 132.001 793.316 138.264C794.973 140.291 795.422 144.504 797.599 145.868C799.746 147.214 803.709 145.386 806 145C805.887 140.192 804.968 135.844 801.725 132.09C799.672 129.712 794.093 126.792 794.631 123.09C795.132 119.645 800.346 117.969 803 116.703C809.841 113.44 817.718 110.151 821.312 102.999C825.787 94.0927 821.544 83.6836 812 80.8002C802.006 77.7809 787.071 80.0313 778 84.8333C768.436 89.8961 764.489 99.9125 758.1 107.961C754.155 112.93 749.319 116.309 743.001 113.442C729.879 107.488 744.947 95.1035 737.427 85.0394C733.413 79.666 726.674 76.3244 721 73.0116C703.89 63.0222 682.971 56.7612 663 59.1844C646.464 61.1909 631.222 73.8549 622.043 87C617.77 93.12 615.825 100.323 610.56 105.815C605.006 111.608 594.796 116.443 588.899 108.799C583.258 101.489 590.277 89.055 595.329 83.0038C604.057 72.5499 620.833 71.5994 626.005 58C627.856 53.1354 627 47.1192 627 42L618 42z"/>

  <path style="fill:#449000; stroke:none;"
        d="M717 236C724.109 240.541 727.655 236.891 732.7 231C738.35 224.402 743.026 216.067 745.505 207.715C747.338 201.538 747.214 188.989 744.348 183.17C741.529 177.447 735.388 172.554 731.039 168C723.636 160.248 716.042 154.065 705 152.303C690.93 150.058 676.314 150.351 663 155.954C645.981 163.117 631.696 176.294 614.996 184.205C593.796 194.249 567.357 202.28 551.171 219.997C544.158 227.673 542.15 236.093 539.665 246C538.597 250.259 538.284 255.132 536.062 259C533.768 262.996 529.721 266.214 526 268.826C521.005 272.331 514.811 274.106 509 275.745C495.914 279.434 481.288 281.791 468 277.297C461.547 275.114 457.303 266.886 451.001 265.461C447.169 264.595 443.168 269.435 444.832 272.981C446.719 277.003 452.526 279.12 456 281.529C470.791 291.786 493.542 289.135 510 284.594C514.746 283.285 519.508 282.825 524 280.626C530.546 277.421 539.02 272.109 542.836 265.715C545.532 261.195 545.717 254.973 547.285 250C551.484 236.683 555.966 227.07 566.714 217.681C571.716 213.311 576.996 212.2 582.911 209.732C590.382 206.615 597.365 202.936 605 200.049C611.254 197.685 616.209 193.376 622.015 190.262C628.48 186.793 635.693 184.532 642 180.895C655.992 172.827 668.768 159.08 686 159.079C702.952 159.078 715.301 165.316 727.089 176.83C732.851 182.458 738.346 189.328 737.674 198C736.995 206.777 732.723 216.143 727.331 223C723.866 227.407 719.387 230.881 717 236z"/>

  <path style="fill:#00738e; stroke:none;"
        d="M43 425C45.4691 425.426 47.6454 426.132 50 427C49.9996 422.956 50.4759 418.592 48.2577 415C44.7711 409.355 35.6645 404.67 38.9452 397C46.3473 379.694 62.2644 372.863 78 364.742C94.694 356.125 111.188 347.159 128 338.753C140.758 332.374 158.853 326.325 163.072 311C167.496 294.928 149.004 284.863 137 278.756C114.146 267.131 91.8164 253.167 70 239.684C63.3359 235.565 50.8603 230.427 48.6358 222.001C47.4095 217.355 53.6802 214.387 57 212.785C66.2785 208.31 80.234 207.448 86.2577 197.985C93.2986 186.923 77.4603 181.233 78.5787 171.004C79.2452 164.908 85.6652 161.831 91 161.005C104.078 158.978 112.326 167.331 119 178C127.259 174.245 123.643 168.6 118.561 163.171C111.406 155.527 102.349 151.799 92 153.615C87.5269 154.4 82.0355 154.884 78.0934 157.279C70.2515 162.041 70.0056 172.174 72.4437 180C73.6417 183.845 79.7872 189.082 78.8079 192.96C77.8022 196.942 72.321 199.109 68.9961 200.573C58.3534 205.258 34.1912 208.662 41.0054 226C44.9701 236.088 55.4951 239.784 63.9853 245C84.9047 257.851 106.267 271.047 128 282.515C136.293 286.89 143.087 291.102 150.039 297.425C152.776 299.915 156.773 302.813 156.214 307C155.629 311.381 151.743 315.261 148.572 317.985C140.431 324.976 130.512 329.491 121 334.247C102.467 343.514 84.1407 352.903 65.7153 362.29C50.5433 370.02 35.653 378.304 30.6373 396C26.9235 409.103 40.7732 413.964 43 425z"/>

  <path style="fill:#8cce13; stroke:none;"
        d="M885 291C881.671 281.908 874.101 270.362 865.999 264.919C852.891 256.113 831.623 256.977 818 263.981C809.102 268.556 802.368 276.207 794 281.565C769.382 297.328 744.362 312.535 718.996 327.036C711.551 331.292 704.248 335.837 697.004 340.424C692.35 343.371 688.644 346.575 683 347.345C675.894 348.314 669.619 344.509 664 340.653C652.534 332.783 641.267 323.216 631.004 313.83C625.133 308.462 617.641 300.352 625.109 293.213C633.44 285.248 646.672 281.435 657 276.83C671.883 270.195 686.829 262.044 701 254C708.67 249.646 717.631 246.272 723 239C720.649 237.719 717.898 235.555 715.089 235.697C712.479 235.829 710.179 238.112 707.964 239.291C702.231 242.344 696.833 245.837 691 248.753C677.616 255.445 664.724 263.741 651 269.664C643.552 272.878 636.283 276.134 629 279.752C625.477 281.502 621.273 282.862 618.34 285.557C612.125 291.269 611.738 301.679 614.88 309C619.371 319.465 629.546 325.903 638 332.919C649.267 342.27 661.73 354.298 677 355.829C694.69 357.604 708.663 344.604 723 336.283C747.49 322.07 772.193 307.642 796 292.308C807.402 284.964 817.043 273.754 830 269.09C840.161 265.433 852.747 266.999 860.91 274.326C864.863 277.874 867.752 282.6 870.656 286.999C872.051 289.112 873.553 292.505 876.21 293.264C878.931 294.041 882.44 291.787 885 291z"/>

  <path style="fill:#f3d54b; stroke:none;"
        d="M551 478C540.33 478.008 533.375 485.908 522 483.482C507.038 480.291 493.1 469.328 480 461.85C456.3 448.32 432.835 434.437 409 421.14C399.2 415.673 389.337 408.684 379 404.363C368.619 400.024 355.734 404.657 345 404.87C340.493 404.96 335.239 403.367 331 401.899C320.991 398.431 312.294 392.009 303 387.12C295.549 383.201 287.729 380.778 281 375.482C277.166 372.465 269.65 366.518 269.933 361C270.091 357.919 272.84 355.237 275.04 353.379C280.741 348.566 287.78 345.095 294 340.997C314.803 327.289 337.286 316.451 358 302.667C364.648 298.243 376.636 293.036 379 285C377.159 284.008 375.201 282.616 372.995 282.812C369.673 283.108 366.625 286.167 364 287.975C358.099 292.039 352.134 296.091 346 299.796C323.622 313.317 300.944 325.895 279 340.166C267.87 347.404 256.428 356.307 264.417 371C271.222 383.513 286.099 388.07 297.961 394.025C311.437 400.79 323.335 410.438 339 411.896C344.851 412.44 351.195 412.252 357 411.421C361.714 410.746 367.315 409.123 372 410.559C377.985 412.395 383.867 416.924 389.282 420.037C398.217 425.174 407.34 429.896 416.282 435.037C444.003 450.976 471.768 466.865 499.286 483.164C512.595 491.046 546.322 501.188 551 478z"/>

  <path style="fill:#dba105; stroke:none;"
        d="M877 295C880.871 304.297 886.137 313.68 886.787 324C887.395 333.658 882.292 345.534 876.471 352.996C871.409 359.484 863.621 363.846 857 368.579C837.719 382.363 815.81 392.027 795 403.309C775.522 413.868 759.242 427.865 741 440.254C721.804 453.291 701.164 464.812 681 476.281C671.144 481.887 661.146 487.187 651 492.247C645.11 495.184 638.712 498.576 632 498.895C622.4 499.351 613.347 492.41 608.04 485C599.988 473.757 593.362 460.458 580 454.529C569.729 449.972 555.396 452.805 548.498 462.015C545.05 466.62 543.722 472.414 543 478C546.122 478.026 548.96 478.276 552 479C552.729 464.985 566.957 457.005 578.576 465.209C595.225 476.965 599.842 500.536 621 506.366C626.153 507.786 632.693 507.254 638 506.957C646.083 506.504 653.918 501.789 661 498.247C675.048 491.222 688.411 483.127 702 475.284C717.15 466.54 732.594 457.917 747 447.975C765.118 435.471 781.627 421.945 801 411.306C822.19 399.668 844.298 389.663 864 375.579C870.691 370.795 878.264 366.41 883.532 359.996C899.46 340.606 898.406 311.328 885 291C881.977 291.958 879.61 293.208 877 295z"/>

  <path style="fill:#6cb6e4; stroke:none;"
        d="M362 484C361.658 473.56 349.821 473.346 343.093 467.61C339.051 464.162 336.438 459.08 333.076 455C323.828 443.777 313.127 436.246 298 439.746C275.124 445.038 255.893 460.785 236 472.548C224.386 479.415 211.864 484.877 200 491.309C189.068 497.235 179.059 504.444 167 508.1C158.411 510.703 148.885 511.281 140 512.169C123.375 513.831 106.309 513.851 90 509.87C67.2627 504.321 45.7923 492.459 26 480.186C19.0954 475.904 8.70713 469.236 8.82253 460C8.8988 453.896 15.3244 450.745 20 448.234C29.2097 443.287 45.9125 437.969 49 427C40.8663 425.154 35.7299 430.99 29 434.688C16.1879 441.729 -1.72991 446.969 2.00463 465C2.50487 467.415 3.06501 469.827 4.27855 472C9.58696 481.507 21.6448 487.154 30.8302 492.108C49.6927 502.281 67.6467 513.533 89 517.626C110.811 521.806 134.158 520.815 156 517.246C163.912 515.953 171.384 515.185 179 512.453C188.359 509.096 196.436 502.759 205 497.873C216.412 491.362 228.572 486.231 240 479.719C254.543 471.433 268.025 461.259 283 453.753C288.647 450.923 294.702 447.415 301 446.329C317.936 443.408 326.091 461.602 335.465 471.895C340.977 477.949 353.864 483.759 362 484z"/>

</svg>
